<?xml version="1.0" encoding="UTF-8" standalone="no"?>
<!DOCTYPE svg PUBLIC "-//W3C//DTD SVG 1.1//EN" "http://www.w3.org/Graphics/SVG/1.1/DTD/svg11.dtd">
<svg version="1.1" xmlns="http://www.w3.org/2000/svg" xmlns:xlink="http://www.w3.org/1999/xlink" preserveAspectRatio="xMidYMid meet" viewBox="6.216809772526614 -0.04325274500794496 296.14935386383706 102.15854522240957" width="292.15" height="98.16"><defs><path d="M68.25 8.87L41.55 15.68L41.55 31.33L68.25 24.52L68.25 8.87Z" id="c1eZHLaCcX"></path><path d="M68.25 8.87L41.55 15.68L41.55 31.33L68.25 24.52L68.25 8.87Z" id="d1Bmju8Ddt"></path><path d="M68.25 8.87L41.55 15.68L41.55 31.33L68.25 24.52L68.25 8.87Z" id="bsm85Whvs"></path><path d="M68.25 8.87L41.55 15.68L41.55 31.33L68.25 24.52L68.25 8.87Z" id="b114dacUK"></path><path d="M80.17 21.48L99.25 16.61L99.25 0.96L80.17 5.84L80.17 21.48Z" id="a2PTA2Yh22"></path><path d="M80.17 21.48L99.25 16.61L99.25 0.96L80.17 5.84L80.17 21.48Z" id="b1aOla4dQm"></path><path d="M80.17 21.48L99.25 16.61L99.25 0.96L80.17 5.84L80.17 21.48Z" id="a3ZCMAYgnl"></path><path d="M80.17 21.48L99.25 16.61L99.25 0.96L80.17 5.84L80.17 21.48Z" id="cclJjcSZh"></path><path d="M29.64 18.72L7.22 24.45L7.22 40.09L29.64 34.37L29.64 18.72Z" id="b1mbqmX0nZ"></path><path d="M29.64 18.72L7.22 24.45L7.22 40.09L29.64 34.37L29.64 18.72Z" id="b27W2ghE3f"></path><path d="M29.64 18.72L7.22 24.45L7.22 40.09L29.64 34.37L29.64 18.72Z" id="abHvNwWh1"></path><path d="M29.64 18.72L7.22 24.45L7.22 40.09L29.64 34.37L29.64 18.72Z" id="a92ksH1qWm"></path><path d="M80.17 50.99L99.25 46.13L99.25 30.48L80.17 35.35L80.17 50.99Z" id="b2vd4UOLcH"></path><path d="M80.17 50.99L99.25 46.13L99.25 30.48L80.17 35.35L80.17 50.99Z" id="d2hUcpyZra"></path><path d="M80.17 50.99L99.25 46.13L99.25 30.48L80.17 35.35L80.17 50.99Z" id="b1h9801dXy"></path><path d="M80.17 50.99L99.25 46.13L99.25 30.48L80.17 35.35L80.17 50.99Z" id="c43alHQ73R"></path><path d="M68.25 38.39L7.22 53.96L7.22 69.6L68.25 54.04L68.25 38.39Z" id="a4KgiY65V"></path><path d="M68.25 38.39L7.22 53.96L7.22 69.6L68.25 54.04L68.25 38.39Z" id="d3LYJPQb5"></path><path d="M68.25 38.39L7.22 53.96L7.22 69.6L68.25 54.04L68.25 38.39Z" id="g4vacrfDfj"></path><path d="M68.25 38.39L7.22 53.96L7.22 69.6L68.25 54.04L68.25 38.39Z" id="c4L6YIufLH"></path><path d="M41.55 90.36L99.25 75.64L99.25 59.99L41.55 74.72L41.55 90.36Z" id="aq92cLS4U"></path><path d="M41.55 90.36L99.25 75.64L99.25 59.99L41.55 74.72L41.55 90.36Z" id="c1DTujdH9k"></path><path d="M41.55 90.36L99.25 75.64L99.25 59.99L41.55 74.72L41.55 90.36Z" id="bzKWU3qyz"></path><path d="M41.55 90.36L99.25 75.64L99.25 59.99L41.55 74.72L41.55 90.36Z" id="hzXIjm9WG"></path><path d="M29.64 77.76L7.22 83.48L7.22 99.12L29.64 93.4L29.64 77.76Z" id="c2T5yzdTjw"></path><path d="M29.64 77.76L7.22 83.48L7.22 99.12L29.64 93.4L29.64 77.76Z" id="c6SiNYLjx"></path><path d="M29.64 77.76L7.22 83.48L7.22 99.12L29.64 93.4L29.64 77.76Z" id="h11N8Rjry7"></path><path d="M29.64 77.76L7.22 83.48L7.22 99.12L29.64 93.4L29.64 77.76Z" id="a3hwZmiXaO"></path><path d="M119.89 99.12C119.89 99.12 119.89 99.12 119.89 99.12C118.19 99.12 117.25 99.12 117.06 99.12C117.06 99.12 117.06 99.12 117.06 99.12C117.06 40.59 117.06 8.08 117.06 1.57C117.06 1.57 117.06 1.57 117.06 1.57C118.76 1.57 119.7 1.57 119.89 1.57C119.89 1.57 119.89 1.57 119.89 1.57C119.89 60.1 119.89 92.62 119.89 99.12Z" id="eFfNSCkQp"></path><path d="M119.89 99.12C119.89 99.12 119.89 99.12 119.89 99.12C118.19 99.12 117.25 99.12 117.06 99.12C117.06 99.12 117.06 99.12 117.06 99.12C117.06 40.59 117.06 8.08 117.06 1.57C117.06 1.57 117.06 1.57 117.06 1.57C118.76 1.57 119.7 1.57 119.89 1.57C119.89 1.57 119.89 1.57 119.89 1.57C119.89 60.1 119.89 92.62 119.89 99.12Z" id="e7SgTULFFn"></path><path d="M119.89 99.12C119.89 99.12 119.89 99.12 119.89 99.12C118.19 99.12 117.25 99.12 117.06 99.12C117.06 99.12 117.06 99.12 117.06 99.12C117.06 40.59 117.06 8.08 117.06 1.57C117.06 1.57 117.06 1.57 117.06 1.57C118.76 1.57 119.7 1.57 119.89 1.57C119.89 1.57 119.89 1.57 119.89 1.57C119.89 60.1 119.89 92.62 119.89 99.12Z" id="b7w5K45hR"></path><path d="M119.89 99.12C119.89 99.12 119.89 99.12 119.89 99.12C118.19 99.12 117.25 99.12 117.06 99.12C117.06 99.12 117.06 99.12 117.06 99.12C117.06 40.59 117.06 8.08 117.06 1.57C117.06 1.57 117.06 1.57 117.06 1.57C118.76 1.57 119.7 1.57 119.89 1.57C119.89 1.57 119.89 1.57 119.89 1.57C119.89 60.1 119.89 92.62 119.89 99.12Z" id="a1P2ZfGmGu"></path><path d="M171.53 64.86C168.62 67.25 164.66 68.23 163.9 68.6C160.76 69.5 157.33 69.95 153.63 69.95C153.63 69.95 153.63 69.95 153.63 69.95C147.42 69.95 144.14 68.51 143.09 68.35C138.76 66.75 137.22 64.36 136.56 63.92C135.1 62.03 134.37 59.85 134.37 57.38C134.37 57.38 134.37 57.38 134.37 57.38C134.37 53.61 136.37 51.53 136.6 50.88C138.08 49.05 140.01 47.74 142.38 46.95C142.38 46.95 142.38 46.95 142.38 46.95C139.54 45.69 138.37 43.53 137.92 43.15C136.84 41.45 136.31 39.49 136.31 37.27C136.31 37.27 136.31 37.27 136.31 37.27C136.31 33.81 138.14 31.67 138.34 31.05C140.38 28.28 143.9 27.06 144.51 26.62C147.27 25.51 150.63 24.95 154.6 24.95C154.6 24.95 154.6 24.95 154.6 24.95C158.8 24.95 161.95 25.74 162.77 25.83C165.42 26.42 167.72 27.26 169.65 28.34L169.65 28.34C168.53 31.36 167.9 33.04 167.78 33.37C163.9 31.36 159.59 30.36 154.85 30.36C154.85 30.36 154.85 30.36 154.85 30.36C148.97 30.36 146.77 32.19 145.87 32.4C143.8 33.76 142.77 35.53 142.77 37.71C142.77 37.71 142.77 37.71 142.77 37.71C142.77 40.98 144.92 42.23 145.16 42.74C146.75 43.91 149.04 44.5 152.01 44.5L152.01 44.5L163.64 44.5L163.64 49.9C156.51 49.9 152.54 49.9 151.75 49.9C146.65 49.9 144.54 51.49 143.74 51.66C141.8 52.83 140.83 54.59 140.83 56.94C140.83 56.94 140.83 56.94 140.83 56.94C140.83 60.52 143.8 61.98 144.13 62.53C146.32 63.88 149.6 64.55 153.95 64.55C153.95 64.55 153.95 64.55 153.95 64.55C158.47 64.55 161.71 63.44 162.58 63.32C165.31 62.5 167.56 61.38 169.33 59.96L169.33 59.96C170.65 62.9 171.38 64.53 171.53 64.86ZM204.3 64.48L204.3 69.45L175.6 69.45L175.6 65.55L184.33 54.99L178.12 54.99L178.12 50.22L188.33 50.22L195.83 41.1L175.99 41.1L175.99 36.14L203.78 36.14L203.78 40.1L195.31 50.28L201.71 50.28L201.71 55.06L191.37 55.06L183.55 64.48L204.3 64.48ZM221.78 67.03C216.32 64.11 214.07 59.79 213.21 58.98C211.15 55.57 210.11 51.72 210.11 47.45C210.11 47.45 210.11 47.45 210.11 47.45C210.11 41.04 212.9 37.07 213.21 35.92C216.32 30.8 220.95 28.68 221.81 27.87C225.47 25.92 229.57 24.95 234.09 24.95C234.09 24.95 234.09 24.95 234.09 24.95C239.39 24.95 242.82 26.51 243.78 26.68C246.71 27.83 249.21 29.54 251.28 31.8L251.28 31.8C248.76 34.18 247.36 35.5 247.08 35.76C243.68 32.28 239.43 30.54 234.35 30.54C234.35 30.54 234.35 30.54 234.35 30.54C229.31 30.54 226.15 32.52 225.24 32.74C221.16 34.94 219.51 38.2 218.87 38.81C217.34 41.39 216.58 44.27 216.58 47.45C216.58 47.45 216.58 47.45 216.58 47.45C216.58 52.23 218.64 55.23 218.87 56.09C221.16 59.96 224.6 61.55 225.24 62.16C227.95 63.62 230.99 64.36 234.35 64.36C234.35 64.36 234.35 64.36 234.35 64.36C239.39 64.36 243.63 62.6 247.08 59.08L247.08 59.08C249.6 61.45 251 62.77 251.28 63.04C248.18 66.43 244.51 67.68 243.75 68.19C240.8 69.36 237.56 69.95 234.03 69.95L234.03 69.95C226.68 68.2 222.59 67.22 221.78 67.03ZM299.37 25.45L279.52 69.45L273.13 69.45L253.22 25.45L260.2 25.45L276.49 61.59L292.9 25.45L299.37 25.45Z" id="a2ibqAmsin"></path></defs><g><g><use xlink:href="#c1eZHLaCcX" opacity="1" fill="#4db2ff" fill-opacity="1"></use><g><use xlink:href="#c1eZHLaCcX" opacity="1" fill-opacity="0" stroke="#000000" stroke-width="1" stroke-opacity="0"></use></g></g><g><use xlink:href="#d1Bmju8Ddt" opacity="1" fill="#000000" fill-opacity="0"></use><g><use xlink:href="#d1Bmju8Ddt" opacity="1" fill-opacity="0" stroke="#000000" stroke-width="1" stroke-opacity="0"></use></g></g><g><use xlink:href="#bsm85Whvs" opacity="1" fill="#000000" fill-opacity="0"></use><g><use xlink:href="#bsm85Whvs" opacity="1" fill-opacity="0" stroke="#000000" stroke-width="1" stroke-opacity="0"></use></g></g><g><use xlink:href="#b114dacUK" opacity="1" fill="#000000" fill-opacity="0"></use><g><use xlink:href="#b114dacUK" opacity="1" fill-opacity="0" stroke="#000000" stroke-width="1" stroke-opacity="0"></use></g></g><g><use xlink:href="#a2PTA2Yh22" opacity="1" fill="#0ef3d3" fill-opacity="1"></use><g><use xlink:href="#a2PTA2Yh22" opacity="1" fill-opacity="0" stroke="#000000" stroke-width="1" stroke-opacity="0"></use></g></g><g><use xlink:href="#b1aOla4dQm" opacity="1" fill="#000000" fill-opacity="0"></use><g><use xlink:href="#b1aOla4dQm" opacity="1" fill-opacity="0" stroke="#000000" stroke-width="1" stroke-opacity="0"></use></g></g><g><use xlink:href="#a3ZCMAYgnl" opacity="1" fill="#000000" fill-opacity="0"></use><g><use xlink:href="#a3ZCMAYgnl" opacity="1" fill-opacity="0" stroke="#000000" stroke-width="1" stroke-opacity="0"></use></g></g><g><use xlink:href="#cclJjcSZh" opacity="1" fill="#000000" fill-opacity="0"></use><g><use xlink:href="#cclJjcSZh" opacity="1" fill-opacity="0" stroke="#000000" stroke-width="1" stroke-opacity="0"></use></g></g><g><use xlink:href="#b1mbqmX0nZ" opacity="1" fill="#000059" fill-opacity="1"></use><g><use xlink:href="#b1mbqmX0nZ" opacity="1" fill-opacity="0" stroke="#000000" stroke-width="1" stroke-opacity="0"></use></g></g><g><use xlink:href="#b27W2ghE3f" opacity="1" fill="#000000" fill-opacity="0"></use><g><use xlink:href="#b27W2ghE3f" opacity="1" fill-opacity="0" stroke="#000000" stroke-width="1" stroke-opacity="0"></use></g></g><g><use xlink:href="#abHvNwWh1" opacity="1" fill="#000000" fill-opacity="0"></use><g><use xlink:href="#abHvNwWh1" opacity="1" fill-opacity="0" stroke="#000000" stroke-width="1" stroke-opacity="0"></use></g></g><g><use xlink:href="#a92ksH1qWm" opacity="1" fill="#000000" fill-opacity="0"></use><g><use xlink:href="#a92ksH1qWm" opacity="1" fill-opacity="0" stroke="#000000" stroke-width="1" stroke-opacity="0"></use></g></g><g><use xlink:href="#b2vd4UOLcH" opacity="1" fill="#000059" fill-opacity="1"></use><g><use xlink:href="#b2vd4UOLcH" opacity="1" fill-opacity="0" stroke="#000000" stroke-width="1" stroke-opacity="0"></use></g></g><g><use xlink:href="#d2hUcpyZra" opacity="1" fill="#000000" fill-opacity="0"></use><g><use xlink:href="#d2hUcpyZra" opacity="1" fill-opacity="0" stroke="#000000" stroke-width="1" stroke-opacity="0"></use></g></g><g><use xlink:href="#b1h9801dXy" opacity="1" fill="#000000" fill-opacity="0"></use><g><use xlink:href="#b1h9801dXy" opacity="1" fill-opacity="0" stroke="#000000" stroke-width="1" stroke-opacity="0"></use></g></g><g><use xlink:href="#c43alHQ73R" opacity="1" fill="#000000" fill-opacity="0"></use><g><use xlink:href="#c43alHQ73R" opacity="1" fill-opacity="0" stroke="#000000" stroke-width="1" stroke-opacity="0"></use></g></g><g><use xlink:href="#a4KgiY65V" opacity="1" fill="#4db2ff" fill-opacity="1"></use><g><use xlink:href="#a4KgiY65V" opacity="1" fill-opacity="0" stroke="#000000" stroke-width="1" stroke-opacity="0"></use></g></g><g><use xlink:href="#d3LYJPQb5" opacity="1" fill="#000000" fill-opacity="0"></use><g><use xlink:href="#d3LYJPQb5" opacity="1" fill-opacity="0" stroke="#000000" stroke-width="1" stroke-opacity="0"></use></g></g><g><use xlink:href="#g4vacrfDfj" opacity="1" fill="#000000" fill-opacity="0"></use><g><use xlink:href="#g4vacrfDfj" opacity="1" fill-opacity="0" stroke="#000000" stroke-width="1" stroke-opacity="0"></use></g></g><g><use xlink:href="#c4L6YIufLH" opacity="1" fill="#000000" fill-opacity="0"></use><g><use xlink:href="#c4L6YIufLH" opacity="1" fill-opacity="0" stroke="#000000" stroke-width="1" stroke-opacity="0"></use></g></g><g><use xlink:href="#aq92cLS4U" opacity="1" fill="#0ef3d3" fill-opacity="1"></use><g><use xlink:href="#aq92cLS4U" opacity="1" fill-opacity="0" stroke="#000000" stroke-width="1" stroke-opacity="0"></use></g></g><g><use xlink:href="#c1DTujdH9k" opacity="1" fill="#000000" fill-opacity="0"></use><g><use xlink:href="#c1DTujdH9k" opacity="1" fill-opacity="0" stroke="#000000" stroke-width="1" stroke-opacity="0"></use></g></g><g><use xlink:href="#bzKWU3qyz" opacity="1" fill="#000000" fill-opacity="0"></use><g><use xlink:href="#bzKWU3qyz" opacity="1" fill-opacity="0" stroke="#000000" stroke-width="1" stroke-opacity="0"></use></g></g><g><use xlink:href="#hzXIjm9WG" opacity="1" fill="#000000" fill-opacity="0"></use><g><use xlink:href="#hzXIjm9WG" opacity="1" fill-opacity="0" stroke="#000000" stroke-width="1" stroke-opacity="0"></use></g></g><g><use xlink:href="#c2T5yzdTjw" opacity="1" fill="#000059" fill-opacity="1"></use><g><use xlink:href="#c2T5yzdTjw" opacity="1" fill-opacity="0" stroke="#000000" stroke-width="1" stroke-opacity="0"></use></g></g><g><use xlink:href="#c6SiNYLjx" opacity="1" fill="#000000" fill-opacity="0"></use><g><use xlink:href="#c6SiNYLjx" opacity="1" fill-opacity="0" stroke="#000000" stroke-width="1" stroke-opacity="0"></use></g></g><g><use xlink:href="#h11N8Rjry7" opacity="1" fill="#000000" fill-opacity="0"></use><g><use xlink:href="#h11N8Rjry7" opacity="1" fill-opacity="0" stroke="#000000" stroke-width="1" stroke-opacity="0"></use></g></g><g><use xlink:href="#a3hwZmiXaO" opacity="1" fill="#000000" fill-opacity="0"></use><g><use xlink:href="#a3hwZmiXaO" opacity="1" fill-opacity="0" stroke="#000000" stroke-width="1" stroke-opacity="0"></use></g></g><g><use xlink:href="#eFfNSCkQp" opacity="1" fill="#ffffff" fill-opacity="1"></use><g><use xlink:href="#eFfNSCkQp" opacity="1" fill-opacity="0" stroke="#000000" stroke-width="1" stroke-opacity="0"></use></g></g><g><use xlink:href="#e7SgTULFFn" opacity="1" fill="#000000" fill-opacity="0"></use><g><use xlink:href="#e7SgTULFFn" opacity="1" fill-opacity="0" stroke="#000000" stroke-width="1" stroke-opacity="0"></use></g></g><g><use xlink:href="#b7w5K45hR" opacity="1" fill="#ffffff" fill-opacity="1"></use><g><use xlink:href="#b7w5K45hR" opacity="1" fill-opacity="0" stroke="#000000" stroke-width="1" stroke-opacity="0"></use></g></g><g><use xlink:href="#a1P2ZfGmGu" opacity="1" fill="#000000" fill-opacity="0"></use><g><use xlink:href="#a1P2ZfGmGu" opacity="1" fill-opacity="0" stroke="#000000" stroke-width="0" stroke-opacity="0"></use></g></g><g><use xlink:href="#a2ibqAmsin" opacity="1" fill="#ffffff" fill-opacity="1"></use><g><use xlink:href="#a2ibqAmsin" opacity="1" fill-opacity="0" stroke="#000000" stroke-width="1" stroke-opacity="0"></use></g></g></g></svg>