<?xml version="1.0" encoding="UTF-8" standalone="no"?>
<!DOCTYPE svg PUBLIC "-//W3C//DTD SVG 1.1//EN" "http://www.w3.org/Graphics/SVG/1.1/DTD/svg11.dtd">
<svg version="1.1"
    xmlns="http://www.w3.org/2000/svg"
    xmlns:xlink="http://www.w3.org/1999/xlink" preserveAspectRatio="xMidYMid meet" viewBox="42.34415584415583 213.4339 463.24904415584444 110.66000000000003" width="459.25" height="106.66">
    <defs>
        <path d="M80.65 247.43L109.66 240.03L109.66 223.03L80.65 230.43L80.65 247.43Z" id="a1WaS4QD9L"></path>
        <path d="M143.34 214.43L122.6 219.73L122.6 236.72L143.34 231.43L143.34 214.43Z" id="crLXwG2EW"></path>
        <path d="M43.34 256.95L67.7 250.73L67.7 233.73L43.34 239.95L43.34 256.95Z" id="b115ZSAmBP"></path>
        <path d="M143.34 246.51L122.6 251.8L122.6 268.8L143.34 263.51L143.34 246.51Z" id="a3qUxWk7D"></path>
        <path d="M43.34 289.02L109.66 272.1L109.66 255.1L43.34 272.02L43.34 289.02Z" id="csrTu2KIk"></path>
        <path d="M143.34 278.58L80.65 294.58L80.65 311.58L143.34 295.58L143.34 278.58Z" id="cdSnt8Hoo"></path>
        <path d="M43.34 321.09L67.7 314.88L67.7 297.88L43.34 304.1L43.34 321.09Z" id="dmZvRY4Go"></path>
        <path d="M165.77 215.09C165.77 215.09 165.77 215.09 165.77 215.09C165.77 278.69 165.77 314.03 165.77 321.09C165.77 321.09 165.77 321.09 165.77 321.09C163.92 321.09 162.9 321.09 162.69 321.09C162.69 321.09 162.69 321.09 162.69 321.09C162.69 257.49 162.69 222.16 162.69 215.09C162.69 215.09 162.69 215.09 162.69 215.09C164.54 215.09 165.56 215.09 165.77 215.09Z" id="c3fNN99jJv"></path>
        <path d="M188.12 283.56C185.27 282.56 183.06 281.25 181.51 279.63L181.51 279.63C182.55 277.59 183.13 276.46 183.24 276.23C185.51 278.49 188.68 279.53 189.28 279.89C191.79 280.83 194.38 281.29 197.05 281.29C197.05 281.29 197.05 281.29 197.05 281.29C202.67 281.29 204.64 279.44 205.48 279.24C207.35 277.87 208.29 276.09 208.29 273.91C208.29 273.91 208.29 273.91 208.29 273.91C208.29 271.41 206.92 270.32 206.77 269.92C205.24 268.43 203.4 267.85 203.03 267.62C201.56 267.09 199.5 266.5 196.87 265.87C196.87 265.87 196.87 265.87 196.87 265.87C192.15 264.68 190.09 263.8 189.34 263.57C186.53 262.47 185.01 260.55 184.53 260.21C183.19 258.7 182.53 256.66 182.53 254.07C182.53 254.07 182.53 254.07 182.53 254.07C182.53 250.92 184.03 248.9 184.2 248.33C185.87 245.74 188.83 244.6 189.34 244.19C191.65 243.16 194.52 242.64 197.95 242.64C197.95 242.64 197.95 242.64 197.95 242.64C201.54 242.64 204.27 243.52 204.97 243.62C207.26 244.28 209.25 245.18 210.92 246.33L210.92 246.33C210.02 248.44 209.53 249.61 209.43 249.85C206.8 248.12 204.37 247.51 203.81 247.25C201.81 246.68 199.86 246.39 197.95 246.39C197.95 246.39 197.95 246.39 197.95 246.39C192.45 246.39 190.5 248.29 189.67 248.51C187.82 249.92 186.89 251.73 186.89 253.96C186.89 253.96 186.89 253.96 186.89 253.96C186.89 256.46 188.26 257.57 188.41 257.98C189.94 259.49 191.86 260.07 192.24 260.3C193.77 260.83 195.84 261.42 198.43 262.06C198.43 262.06 198.43 262.06 198.43 262.06C203.03 263.19 205.13 264.07 205.87 264.29C208.71 265.39 210.2 267.29 210.68 267.62C212 269.11 212.66 271.13 212.66 273.67C212.66 273.67 212.66 273.67 212.66 273.67C212.66 276.83 211.12 278.84 210.95 279.42C209.25 282.01 206.24 283.12 205.72 283.53C203.37 284.54 200.48 285.05 197.05 285.05L197.05 285.05C191.69 284.15 188.71 283.66 188.12 283.56ZM221.38 253.36L225.63 253.36L225.63 284.69L221.38 284.69L221.38 253.36ZM221.32 245.62C220.73 245.02 220.43 244.31 220.43 243.47C220.43 243.47 220.43 243.47 220.43 243.47C220.43 242.28 221.23 241.6 221.32 241.39C221.92 240.79 222.66 240.49 223.54 240.49C223.54 240.49 223.54 240.49 223.54 240.49C224.85 240.49 225.53 241.27 225.75 241.36C226.35 241.93 226.64 242.62 226.64 243.41C226.64 243.41 226.64 243.41 226.64 243.41C226.64 244.72 225.84 245.4 225.75 245.62C225.15 246.21 224.41 246.51 223.54 246.51L223.54 246.51C222.21 245.97 221.47 245.68 221.32 245.62ZM266.16 253.36L266.16 284.69L262.09 284.69C262.09 280.97 262.09 278.91 262.09 278.49C260.18 281.65 257.55 282.84 257.04 283.32C254.95 284.43 252.59 284.99 249.96 284.99C249.96 284.99 249.96 284.99 249.96 284.99C245.53 284.99 242.75 283.16 241.95 282.96C238.36 280.94 236.89 277.87 236.33 277.3C234.97 274.88 234.3 272.12 234.3 269.02C234.3 269.02 234.3 269.02 234.3 269.02C234.3 264.38 236.13 261.57 236.33 260.75C238.36 257.11 241.39 255.68 241.95 255.12C244.34 253.79 247.01 253.12 249.96 253.12C249.96 253.12 249.96 253.12 249.96 253.12C253.78 253.12 256.17 254.54 256.86 254.7C258.92 255.75 260.6 257.29 261.91 259.32L261.91 259.32L261.91 253.36L266.16 253.36ZM256.27 279.71C258.93 278.2 260.03 275.83 260.45 275.4C261.47 273.53 261.97 271.41 261.97 269.02C261.97 269.02 261.97 269.02 261.97 269.02C261.97 265.45 260.6 263.29 260.45 262.65C258.93 259.85 256.68 258.76 256.27 258.33C254.49 257.32 252.51 256.81 250.32 256.81C250.32 256.81 250.32 256.81 250.32 256.81C246.97 256.81 244.91 258.18 244.31 258.33C241.65 259.85 240.54 262.22 240.12 262.65C239.11 264.52 238.6 266.64 238.6 269.02C238.6 269.02 238.6 269.02 238.6 269.02C238.6 272.6 239.97 274.76 240.12 275.4C241.65 278.2 243.89 279.28 244.31 279.71C246.08 280.73 248.09 281.23 250.32 281.23L250.32 281.23C253.89 280.32 255.87 279.82 256.27 279.71ZM302.21 255.12C305.79 257.11 307.26 260.18 307.83 260.75C309.18 263.17 309.86 265.93 309.86 269.02C309.86 269.02 309.86 269.02 309.86 269.02C309.86 273.67 308.03 276.47 307.83 277.3C305.79 280.94 302.77 282.4 302.21 282.96C299.82 284.31 297.15 284.99 294.2 284.99C294.2 284.99 294.2 284.99 294.2 284.99C290.25 284.99 287.82 283.48 287.11 283.32C285.02 282.21 283.34 280.6 282.06 278.49L282.06 278.49L282.06 284.69L278 284.69L278 240.49L282.24 240.49C282.24 251.79 282.24 258.06 282.24 259.32C284.21 256.28 286.79 255.16 287.29 254.7C289.34 253.65 291.65 253.12 294.2 253.12L294.2 253.12C299 254.32 301.67 254.98 302.21 255.12ZM299.88 279.71C302.57 278.2 303.67 275.83 304.09 275.4C305.11 273.53 305.61 271.41 305.61 269.02C305.61 269.02 305.61 269.02 305.61 269.02C305.61 265.45 304.24 263.29 304.09 262.65C302.57 259.85 300.3 258.76 299.88 258.33C298.08 257.32 296.09 256.81 293.9 256.81C293.9 256.81 293.9 256.81 293.9 256.81C290.55 256.81 288.49 258.18 287.89 258.33C285.23 259.85 284.12 262.22 283.7 262.65C282.69 264.52 282.18 266.64 282.18 269.02C282.18 269.02 282.18 269.02 282.18 269.02C282.18 272.6 283.55 274.76 283.7 275.4C285.23 278.2 287.47 279.28 287.89 279.71C289.66 280.73 291.67 281.23 293.9 281.23L293.9 281.23C297.48 280.32 299.48 279.82 299.88 279.71ZM347.22 253.36L347.22 284.69L343.16 284.69C343.16 280.97 343.16 278.91 343.16 278.49C341.24 281.65 338.61 282.84 338.11 283.32C336.01 284.43 333.65 284.99 331.02 284.99C331.02 284.99 331.02 284.99 331.02 284.99C326.6 284.99 323.81 283.16 323.01 282.96C319.42 280.94 317.95 277.87 317.39 277.3C316.04 274.88 315.36 272.12 315.36 269.02C315.36 269.02 315.36 269.02 315.36 269.02C315.36 264.38 317.19 261.57 317.39 260.75C319.42 257.11 322.45 255.68 323.01 255.12C325.4 253.79 328.07 253.12 331.02 253.12C331.02 253.12 331.02 253.12 331.02 253.12C334.85 253.12 337.24 254.54 337.93 254.7C339.98 255.75 341.66 257.29 342.98 259.32L342.98 259.32L342.98 253.36L347.22 253.36ZM337.33 279.71C339.99 278.2 341.09 275.83 341.51 275.4C342.53 273.53 343.04 271.41 343.04 269.02C343.04 269.02 343.04 269.02 343.04 269.02C343.04 265.45 341.67 263.29 341.51 262.65C339.99 259.85 337.75 258.76 337.33 258.33C335.56 257.32 333.57 256.81 331.38 256.81C331.38 256.81 331.38 256.81 331.38 256.81C328.03 256.81 325.97 258.18 325.37 258.33C322.71 259.85 321.61 262.22 321.19 262.65C320.17 264.52 319.66 266.64 319.66 269.02C319.66 269.02 319.66 269.02 319.66 269.02C319.66 272.6 321.04 274.76 321.19 275.4C322.71 278.2 324.95 279.28 325.37 279.71C327.15 280.73 329.15 281.23 331.38 281.23L331.38 281.23C334.95 280.32 336.93 279.82 337.33 279.71ZM360.16 283.88C357.83 283.15 356.01 282.23 354.69 281.11L354.69 281.11C355.84 279.11 356.48 278 356.61 277.78C358.58 279.33 361.07 280.06 361.57 280.31C363.56 280.97 365.63 281.29 367.79 281.29C367.79 281.29 367.79 281.29 367.79 281.29C372.09 281.29 373.52 280.09 374.15 279.95C375.53 279.06 376.22 277.8 376.22 276.17C376.22 276.17 376.22 276.17 376.22 276.17C376.22 274.44 375.19 273.73 375.08 273.46C373.94 272.48 372.5 272.12 372.21 271.97C371.06 271.63 369.52 271.31 367.61 270.99C367.61 270.99 367.61 270.99 367.61 270.99C363.78 270.27 362.07 269.68 361.45 269.53C359.12 268.79 357.87 267.25 357.47 267C356.38 265.81 355.83 264.16 355.83 262.06C355.83 262.06 355.83 262.06 355.83 262.06C355.83 258.12 358.79 256.27 359.12 255.62C361.31 253.96 364.36 253.12 368.27 253.12C368.27 253.12 368.27 253.12 368.27 253.12C371.31 253.12 373.75 253.85 374.36 253.93C376.4 254.46 378.07 255.17 379.38 256.04L379.38 256.04C378.27 258.08 377.65 259.21 377.53 259.43C374.94 257.65 371.85 256.75 368.27 256.75C368.27 256.75 368.27 256.75 368.27 256.75C364.2 256.75 362.75 258.04 362.14 258.18C360.76 259.14 360.08 260.39 360.08 261.94C360.08 261.94 360.08 261.94 360.08 261.94C360.08 263.72 361.12 264.51 361.24 264.8C362.41 265.87 363.85 266.22 364.14 266.37C365.3 266.71 366.89 267.06 368.92 267.42C368.92 267.42 368.92 267.42 368.92 267.42C372.69 268.13 374.36 268.7 374.96 268.85C377.23 269.56 378.46 271.04 378.85 271.29C379.92 272.44 380.46 274.03 380.46 276.05C380.46 276.05 380.46 276.05 380.46 276.05C380.46 280.16 377.37 281.92 377.02 282.57C374.73 284.18 371.55 284.99 367.49 284.99L367.49 284.99C363.09 284.32 360.65 283.96 360.16 283.88ZM407.15 280.19C408.81 279.5 410.21 278.47 411.37 277.12L411.37 277.12C412.8 278.77 413.6 279.68 413.76 279.86C411.67 282.37 409.08 283.29 408.56 283.68C406.49 284.55 404.19 284.99 401.68 284.99C401.68 284.99 401.68 284.99 401.68 284.99C396.84 284.99 393.94 283.14 393.07 282.93C389.31 280.88 387.8 277.81 387.22 277.24C385.82 274.82 385.12 272.08 385.12 269.02C385.12 269.02 385.12 269.02 385.12 269.02C385.12 264.44 386.93 261.63 387.13 260.8C389.13 257.17 392.1 255.71 392.66 255.15C395.01 253.8 397.68 253.12 400.67 253.12C400.67 253.12 400.67 253.12 400.67 253.12C404.85 253.12 407.47 254.84 408.23 255.03C411.61 256.93 413.07 259.8 413.61 260.33C414.94 262.59 415.65 265.17 415.73 268.07L415.73 268.07C400.24 271.07 391.63 272.74 389.91 273.07C391.1 276.89 393.81 278.46 394.24 279.06C396.33 280.51 398.83 281.23 401.74 281.23L401.74 281.23C404.99 280.61 406.79 280.26 407.15 280.19ZM394.78 258.27C392.18 259.79 391.12 262.08 390.71 262.5C389.74 264.31 389.25 266.38 389.25 268.73C389.25 268.73 389.25 268.73 389.25 268.73C389.25 269.32 389.27 269.76 389.31 270.04L389.31 270.04C402.62 267.46 410.01 266.03 411.49 265.75C410.77 261.82 408.2 259.93 407.84 259.29C405.89 257.6 403.5 256.75 400.67 256.75L400.67 256.75C397.13 257.67 395.17 258.17 394.78 258.27ZM432.26 282.31C427.27 279.57 425.21 275.47 424.43 274.71C422.54 271.48 421.59 267.85 421.59 263.84C421.59 263.84 421.59 263.84 421.59 263.84C421.59 257.83 424.15 254.06 424.43 252.97C427.27 248.12 431.5 246.14 432.29 245.38C435.64 243.55 439.38 242.64 443.53 242.64C443.53 242.64 443.53 242.64 443.53 242.64C448.19 242.64 451.28 244.03 452.14 244.19C454.77 245.22 457 246.73 458.83 248.71L458.83 248.71C457.15 250.39 456.21 251.33 456.02 251.51C452.76 248.22 448.63 246.57 443.65 246.57C443.65 246.57 443.65 246.57 443.65 246.57C438.69 246.57 435.52 248.61 434.62 248.83C430.56 251.1 428.89 254.41 428.26 255.03C426.72 257.65 425.95 260.59 425.95 263.84C425.95 263.84 425.95 263.84 425.95 263.84C425.95 268.73 428.03 271.78 428.26 272.66C430.56 276.59 433.99 278.23 434.62 278.85C437.33 280.36 440.34 281.11 443.65 281.11C443.65 281.11 443.65 281.11 443.65 281.11C448.67 281.11 452.8 279.45 456.02 276.11L456.02 276.11C457.71 277.79 458.65 278.72 458.83 278.91C456.08 281.89 452.78 283.01 452.11 283.47C449.46 284.52 446.58 285.05 443.47 285.05L443.47 285.05C436.74 283.4 433.01 282.49 432.26 282.31ZM502.59 243L484.06 284.69L479.7 284.69L461.16 243L465.95 243L481.97 279.21L498.11 243L502.59 243Z" id="d1zf619e9U"></path>
    </defs>
    <g>
        <g>
            <use xlink:href="#a1WaS4QD9L" opacity="1" fill="#4db2ff" fill-opacity="1"></use>
            <g>
                <use xlink:href="#a1WaS4QD9L" opacity="1" fill-opacity="0" stroke="#000000" stroke-width="1" stroke-opacity="0"></use>
            </g>
        </g>
        <g>
            <use xlink:href="#crLXwG2EW" opacity="1" fill="#0ef3d3" fill-opacity="1"></use>
            <g>
                <use xlink:href="#crLXwG2EW" opacity="1" fill-opacity="0" stroke="#000000" stroke-width="1" stroke-opacity="0"></use>
            </g>
        </g>
        <g>
            <use xlink:href="#b115ZSAmBP" opacity="1" fill="#000059" fill-opacity="1"></use>
            <g>
                <use xlink:href="#b115ZSAmBP" opacity="1" fill-opacity="0" stroke="#000000" stroke-width="1" stroke-opacity="0"></use>
            </g>
        </g>
        <g>
            <use xlink:href="#a3qUxWk7D" opacity="1" fill="#000059" fill-opacity="1"></use>
            <g>
                <use xlink:href="#a3qUxWk7D" opacity="1" fill-opacity="0" stroke="#000000" stroke-width="1" stroke-opacity="0"></use>
            </g>
        </g>
        <g>
            <use xlink:href="#csrTu2KIk" opacity="1" fill="#4db2ff" fill-opacity="1"></use>
            <g>
                <use xlink:href="#csrTu2KIk" opacity="1" fill-opacity="0" stroke="#000000" stroke-width="1" stroke-opacity="0"></use>
            </g>
        </g>
        <g>
            <use xlink:href="#cdSnt8Hoo" opacity="1" fill="#0ef3d3" fill-opacity="1"></use>
            <g>
                <use xlink:href="#cdSnt8Hoo" opacity="1" fill-opacity="0" stroke="#000000" stroke-width="1" stroke-opacity="0"></use>
            </g>
        </g>
        <g>
            <use xlink:href="#dmZvRY4Go" opacity="1" fill="#000059" fill-opacity="1"></use>
            <g>
                <use xlink:href="#dmZvRY4Go" opacity="1" fill-opacity="0" stroke="#000000" stroke-width="1" stroke-opacity="0"></use>
            </g>
        </g>
        <g>
            <use xlink:href="#c3fNN99jJv" opacity="1" fill="#4d4d4d" fill-opacity="1"></use>
            <g>
                <use xlink:href="#c3fNN99jJv" opacity="1" fill-opacity="0" stroke="#000000" stroke-width="0" stroke-opacity="0"></use>
            </g>
        </g>
        <g>
            <use xlink:href="#d1zf619e9U" opacity="1" fill="#4d4d4d" fill-opacity="1"></use>
            <g>
                <use xlink:href="#d1zf619e9U" opacity="1" fill-opacity="0" stroke="#000000" stroke-width="1" stroke-opacity="0"></use>
            </g>
        </g>
    </g>
</svg>
