<?xml version="1.0" encoding="UTF-8" standalone="no"?>
<!DOCTYPE svg PUBLIC "-//W3C//DTD SVG 1.1//EN" "http://www.w3.org/Graphics/SVG/1.1/DTD/svg11.dtd">
<svg version="1.1" xmlns="http://www.w3.org/2000/svg" xmlns:xlink="http://www.w3.org/1999/xlink" preserveAspectRatio="xMidYMid meet" viewBox="7.583319539668651 -0.04584673775525516 301.34648046033135 106.16844388216148" width="297.35" height="102.17"><defs><path d="M72.11 25.48L72.11 9.19L44.32 16.28L44.32 32.56L72.11 25.48Z" id="ix73Ta8wR"></path><path d="M72.11 25.48L72.11 9.19L44.32 16.28L44.32 32.56L72.11 25.48Z" id="j2AZutPYBF"></path><path d="M84.51 6.03L84.51 22.31L104.37 17.24L104.37 0.95L84.51 6.03Z" id="a1o89IhytE"></path><path d="M84.51 6.03L84.51 22.31L104.37 17.24L104.37 0.95L84.51 6.03Z" id="ft9436miC"></path><path d="M31.92 35.73L31.92 19.44L8.58 25.4L8.58 41.68L31.92 35.73Z" id="b2pURP82YY"></path><path d="M31.92 35.73L31.92 19.44L8.58 25.4L8.58 41.68L31.92 35.73Z" id="aj0MLg4Qu"></path><path d="M84.51 36.75L84.51 53.03L104.37 47.97L104.37 31.68L84.51 36.75Z" id="eXyCdnzzh"></path><path d="M84.51 36.75L84.51 53.03L104.37 47.97L104.37 31.68L84.51 36.75Z" id="ifpIWrKkN"></path><path d="M72.11 56.2L72.11 39.91L8.58 56.12L8.58 72.4L72.11 56.2Z" id="b3wo6or0Ni"></path><path d="M72.11 56.2L72.11 39.91L8.58 56.12L8.58 72.4L72.11 56.2Z" id="k3irI7HIiI"></path><path d="M44.32 77.73L44.32 94.01L104.37 78.69L104.37 62.4L44.32 77.73Z" id="a1CRJWC0QQ"></path><path d="M44.32 77.73L44.32 94.01L104.37 78.69L104.37 62.4L44.32 77.73Z" id="a2snv6U5zw"></path><path d="M31.92 97.17L31.92 80.89L8.58 86.85L8.58 103.12L31.92 97.17Z" id="k4qctK7SzK"></path><path d="M31.92 97.17L31.92 80.89L8.58 86.85L8.58 103.12L31.92 97.17Z" id="f5DBaL7Eay"></path><path d="M125.86 1.59C125.86 62.51 125.86 96.36 125.86 103.12C125.86 103.12 125.86 103.12 125.86 103.12C124.09 103.12 123.11 103.12 122.91 103.12C122.91 103.12 122.91 103.12 122.91 103.12C122.91 42.2 122.91 8.36 122.91 1.59C122.91 1.59 122.91 1.59 122.91 1.59C124.68 1.59 125.66 1.59 125.86 1.59C125.86 1.59 125.86 1.59 125.86 1.59Z" id="b74oUkzFPW"></path><path d="M125.86 1.59C125.86 62.51 125.86 96.36 125.86 103.12C125.86 103.12 125.86 103.12 125.86 103.12C124.09 103.12 123.11 103.12 122.91 103.12C122.91 103.12 122.91 103.12 122.91 103.12C122.91 42.2 122.91 8.36 122.91 1.59C122.91 1.59 122.91 1.59 122.91 1.59C124.68 1.59 125.66 1.59 125.86 1.59C125.86 1.59 125.86 1.59 125.86 1.59Z" id="a66RNsrZZ"></path><path d="M178.09 65.83C175.18 68.22 171.23 69.19 170.47 69.57C167.32 70.47 163.89 70.92 160.19 70.92C160.19 70.92 160.19 70.92 160.19 70.92C153.99 70.92 150.71 69.48 149.65 69.32C145.32 67.71 143.78 65.33 143.13 64.88C141.66 63 140.93 60.82 140.93 58.35C140.93 58.35 140.93 58.35 140.93 58.35C140.93 54.58 142.94 52.49 143.16 51.84C144.65 50.02 146.57 48.71 148.94 47.92C148.94 47.92 148.94 47.92 148.94 47.92C146.1 46.66 144.93 44.49 144.48 44.11C143.41 42.42 142.87 40.46 142.87 38.24C142.87 38.24 142.87 38.24 142.87 38.24C142.87 34.78 144.7 32.64 144.9 32.01C146.94 29.25 150.46 28.03 151.08 27.58C153.83 26.47 157.19 25.92 161.16 25.92C161.16 25.92 161.16 25.92 161.16 25.92C165.36 25.92 168.52 26.71 169.33 26.8C171.98 27.38 174.28 28.22 176.22 29.31L176.22 29.31C175.09 32.33 174.47 34 174.34 34.34C170.47 32.33 166.16 31.32 161.42 31.32C161.42 31.32 161.42 31.32 161.42 31.32C155.54 31.32 153.33 33.16 152.43 33.37C150.37 34.73 149.33 36.5 149.33 38.68C149.33 38.68 149.33 38.68 149.33 38.68C149.33 41.94 151.48 43.2 151.72 43.7C153.32 44.88 155.6 45.46 158.57 45.46L158.57 45.46L170.21 45.46L170.21 50.87C163.07 50.87 159.11 50.87 158.32 50.87C153.21 50.87 151.1 52.45 150.3 52.63C148.36 53.8 147.39 55.56 147.39 57.91C147.39 57.91 147.39 57.91 147.39 57.91C147.39 61.49 150.36 62.94 150.69 63.5C152.89 64.84 156.16 65.51 160.51 65.51C160.51 65.51 160.51 65.51 160.51 65.51C165.04 65.51 168.28 64.41 169.14 64.29C171.88 63.47 174.13 62.35 175.89 60.93L175.89 60.93C177.21 63.87 177.95 65.5 178.09 65.83ZM210.86 65.45L210.86 70.42L182.16 70.42L182.16 66.52L190.89 55.96L184.68 55.96L184.68 51.18L194.9 51.18L202.39 42.07L182.55 42.07L182.55 37.11L210.34 37.11L210.34 41.06L201.88 51.25L208.27 51.25L208.27 56.02L197.93 56.02L190.11 65.45L210.86 65.45ZM228.34 68C222.88 65.07 220.63 60.76 219.78 59.95C217.71 56.54 216.68 52.69 216.68 48.42C216.68 48.42 216.68 48.42 216.68 48.42C216.68 42.01 219.47 38.04 219.78 36.89C222.88 31.76 227.51 29.65 228.37 28.84C232.04 26.89 236.13 25.92 240.65 25.92C240.65 25.92 240.65 25.92 240.65 25.92C245.95 25.92 249.38 27.47 250.35 27.65C253.28 28.8 255.78 30.51 257.85 32.77L257.85 32.77C255.32 35.14 253.92 36.46 253.64 36.73C250.24 33.25 246 31.51 240.91 31.51C240.91 31.51 240.91 31.51 240.91 31.51C235.87 31.51 232.71 33.49 231.8 33.71C227.73 35.91 226.07 39.17 225.43 39.78C223.9 42.35 223.14 45.23 223.14 48.42C223.14 48.42 223.14 48.42 223.14 48.42C223.14 53.19 225.2 56.2 225.43 57.06C227.73 60.93 231.16 62.52 231.8 63.13C234.51 64.59 237.55 65.32 240.91 65.32C240.91 65.32 240.91 65.32 240.91 65.32C245.95 65.32 250.2 63.56 253.64 60.05L253.64 60.05C256.16 62.42 257.57 63.74 257.85 64C254.74 67.4 251.07 68.64 250.32 69.16C247.36 70.33 244.12 70.92 240.59 70.92L240.59 70.92C233.24 69.16 229.16 68.19 228.34 68ZM305.93 26.42L286.09 70.42L279.69 70.42L259.78 26.42L266.76 26.42L283.05 62.56L299.47 26.42L305.93 26.42Z" id="gKJcSvoEX"></path></defs><g><g><use xlink:href="#ix73Ta8wR" opacity="1" fill="#4db2ff" fill-opacity="1"></use><g><use xlink:href="#ix73Ta8wR" opacity="1" fill-opacity="0" stroke="#000000" stroke-width="1" stroke-opacity="0"></use></g></g><g><use xlink:href="#j2AZutPYBF" opacity="1" fill="#000000" fill-opacity="0"></use><g><use xlink:href="#j2AZutPYBF" opacity="1" fill-opacity="0" stroke="#000000" stroke-width="1" stroke-opacity="0"></use></g></g><g><use xlink:href="#a1o89IhytE" opacity="1" fill="#0ef3d3" fill-opacity="1"></use><g><use xlink:href="#a1o89IhytE" opacity="1" fill-opacity="0" stroke="#000000" stroke-width="1" stroke-opacity="0"></use></g></g><g><use xlink:href="#ft9436miC" opacity="1" fill="#000000" fill-opacity="0"></use><g><use xlink:href="#ft9436miC" opacity="1" fill-opacity="0" stroke="#000000" stroke-width="1" stroke-opacity="0"></use></g></g><g><use xlink:href="#b2pURP82YY" opacity="1" fill="#000059" fill-opacity="1"></use><g><use xlink:href="#b2pURP82YY" opacity="1" fill-opacity="0" stroke="#000000" stroke-width="1" stroke-opacity="0"></use></g></g><g><use xlink:href="#aj0MLg4Qu" opacity="1" fill="#000000" fill-opacity="0"></use><g><use xlink:href="#aj0MLg4Qu" opacity="1" fill-opacity="0" stroke="#000000" stroke-width="1" stroke-opacity="0"></use></g></g><g><use xlink:href="#eXyCdnzzh" opacity="1" fill="#000059" fill-opacity="1"></use><g><use xlink:href="#eXyCdnzzh" opacity="1" fill-opacity="0" stroke="#000000" stroke-width="1" stroke-opacity="0"></use></g></g><g><use xlink:href="#ifpIWrKkN" opacity="1" fill="#000000" fill-opacity="0"></use><g><use xlink:href="#ifpIWrKkN" opacity="1" fill-opacity="0" stroke="#000000" stroke-width="1" stroke-opacity="0"></use></g></g><g><use xlink:href="#b3wo6or0Ni" opacity="1" fill="#4db2ff" fill-opacity="1"></use><g><use xlink:href="#b3wo6or0Ni" opacity="1" fill-opacity="0" stroke="#000000" stroke-width="1" stroke-opacity="0"></use></g></g><g><use xlink:href="#k3irI7HIiI" opacity="1" fill="#000000" fill-opacity="0"></use><g><use xlink:href="#k3irI7HIiI" opacity="1" fill-opacity="0" stroke="#000000" stroke-width="1" stroke-opacity="0"></use></g></g><g><use xlink:href="#a1CRJWC0QQ" opacity="1" fill="#0ef3d3" fill-opacity="1"></use><g><use xlink:href="#a1CRJWC0QQ" opacity="1" fill-opacity="0" stroke="#000000" stroke-width="1" stroke-opacity="0"></use></g></g><g><use xlink:href="#a2snv6U5zw" opacity="1" fill="#000000" fill-opacity="0"></use><g><use xlink:href="#a2snv6U5zw" opacity="1" fill-opacity="0" stroke="#000000" stroke-width="1" stroke-opacity="0"></use></g></g><g><use xlink:href="#k4qctK7SzK" opacity="1" fill="#000059" fill-opacity="1"></use><g><use xlink:href="#k4qctK7SzK" opacity="1" fill-opacity="0" stroke="#000000" stroke-width="1" stroke-opacity="0"></use></g></g><g><use xlink:href="#f5DBaL7Eay" opacity="1" fill="#000000" fill-opacity="0"></use><g><use xlink:href="#f5DBaL7Eay" opacity="1" fill-opacity="0" stroke="#000000" stroke-width="1" stroke-opacity="0"></use></g></g><g><use xlink:href="#b74oUkzFPW" opacity="1" fill="#4d4d4d" fill-opacity="1"></use><g><use xlink:href="#b74oUkzFPW" opacity="1" fill-opacity="0" stroke="#000000" stroke-width="1" stroke-opacity="0"></use></g></g><g><use xlink:href="#a66RNsrZZ" opacity="1" fill="#000000" fill-opacity="0"></use><g><use xlink:href="#a66RNsrZZ" opacity="1" fill-opacity="0" stroke="#000000" stroke-width="0" stroke-opacity="0"></use></g></g><g><use xlink:href="#gKJcSvoEX" opacity="1" fill="#4d4d4d" fill-opacity="1"></use><g><use xlink:href="#gKJcSvoEX" opacity="1" fill-opacity="0" stroke="#000000" stroke-width="1" stroke-opacity="0"></use></g></g></g></svg>