<?xml version="1.0" encoding="UTF-8" standalone="no"?>
<!DOCTYPE svg PUBLIC "-//W3C//DTD SVG 1.1//EN" "http://www.w3.org/Graphics/SVG/1.1/DTD/svg11.dtd">
<svg version="1.1"
    xmlns="http://www.w3.org/2000/svg"
    xmlns:xlink="http://www.w3.org/1999/xlink" preserveAspectRatio="xMidYMid meet" viewBox="7.583319539668651 -0.04584673775525516 443.9105367793239 106.16844388216148" width="439.91" height="102.17">
    <defs>
        <path d="M72.11 25.48L72.11 9.19L44.32 16.28L44.32 32.56L72.11 25.48Z" id="g1TnHU5p2d"></path>
        <path d="M72.11 25.48L72.11 9.19L44.32 16.28L44.32 32.56L72.11 25.48Z" id="c5Zgms2tXP"></path>
        <path d="M84.51 6.03L84.51 22.31L104.37 17.24L104.37 0.95L84.51 6.03Z" id="capkNexTb"></path>
        <path d="M84.51 6.03L84.51 22.31L104.37 17.24L104.37 0.95L84.51 6.03Z" id="c3PfkBehM"></path>
        <path d="M31.92 35.73L31.92 19.44L8.58 25.4L8.58 41.68L31.92 35.73Z" id="b45sl4vvGy"></path>
        <path d="M31.92 35.73L31.92 19.44L8.58 25.4L8.58 41.68L31.92 35.73Z" id="beSbGNuWU"></path>
        <path d="M84.51 36.75L84.51 53.03L104.37 47.97L104.37 31.68L84.51 36.75Z" id="a2igGwBH9Y"></path>
        <path d="M84.51 36.75L84.51 53.03L104.37 47.97L104.37 31.68L84.51 36.75Z" id="aqd3Asndi"></path>
        <path d="M72.11 56.2L72.11 39.91L8.58 56.12L8.58 72.4L72.11 56.2Z" id="c2gyZ8VUG2"></path>
        <path d="M72.11 56.2L72.11 39.91L8.58 56.12L8.58 72.4L72.11 56.2Z" id="c2TO3fgGha"></path>
        <path d="M44.32 77.73L44.32 94.01L104.37 78.69L104.37 62.4L44.32 77.73Z" id="bhUaA8AEZ"></path>
        <path d="M44.32 77.73L44.32 94.01L104.37 78.69L104.37 62.4L44.32 77.73Z" id="b1vy4IYOa9"></path>
        <path d="M31.92 97.17L31.92 80.89L8.58 86.85L8.58 103.12L31.92 97.17Z" id="b3YWEmPnP0"></path>
        <path d="M31.92 97.17L31.92 80.89L8.58 86.85L8.58 103.12L31.92 97.17Z" id="f4q6veXvhK"></path>
        <path d="M125.86 1.59C125.86 62.51 125.86 96.36 125.86 103.12C125.86 103.12 125.86 103.12 125.86 103.12C124.09 103.12 123.11 103.12 122.91 103.12C122.91 103.12 122.91 103.12 122.91 103.12C122.91 42.2 122.91 8.36 122.91 1.59C122.91 1.59 122.91 1.59 122.91 1.59C124.68 1.59 125.66 1.59 125.86 1.59C125.86 1.59 125.86 1.59 125.86 1.59Z" id="anKQou44Z"></path>
        <path d="M125.86 1.59C125.86 62.51 125.86 96.36 125.86 103.12C125.86 103.12 125.86 103.12 125.86 103.12C124.09 103.12 123.11 103.12 122.91 103.12C122.91 103.12 122.91 103.12 122.91 103.12C122.91 42.2 122.91 8.36 122.91 1.59C122.91 1.59 122.91 1.59 122.91 1.59C124.68 1.59 125.66 1.59 125.86 1.59C125.86 1.59 125.86 1.59 125.86 1.59Z" id="c1L07DWTIi"></path>
        <path d="M140.93 63.41C140.93 63.41 140.93 63.41 140.93 63.41C141.93 61.45 142.49 60.37 142.59 60.15C144.77 62.32 147.8 63.31 148.38 63.66C150.78 64.56 153.26 65 155.82 65C155.82 65 155.82 65 155.82 65C161.2 65 163.09 63.23 163.9 63.03C165.69 61.72 166.59 60.02 166.59 57.93C166.59 57.93 166.59 57.93 166.59 57.93C166.59 55.53 165.27 54.49 165.13 54.11C163.67 52.68 161.9 52.12 161.55 51.9C160.14 51.4 158.17 50.83 155.65 50.23C155.65 50.23 155.65 50.23 155.65 50.23C151.13 49.09 149.15 48.25 148.44 48.02C145.74 46.97 144.29 45.13 143.83 44.81C142.54 43.36 141.91 41.41 141.91 38.92C141.91 38.92 141.91 38.92 141.91 38.92C141.91 35.91 143.35 33.97 143.51 33.43C145.11 30.95 147.95 29.85 148.44 29.46C150.65 28.47 153.4 27.98 156.68 27.98C156.68 27.98 156.68 27.98 156.68 27.98C160.12 27.98 162.74 28.82 163.41 28.91C165.6 29.55 167.51 30.41 169.11 31.51C169.11 31.51 169.11 31.51 169.11 31.51C168.24 33.53 167.77 34.65 167.68 34.88C165.16 33.23 162.83 32.64 162.3 32.39C160.38 31.85 158.51 31.57 156.68 31.57C156.68 31.57 156.68 31.57 156.68 31.57C151.41 31.57 149.55 33.39 148.75 33.6C146.98 34.95 146.09 36.68 146.09 38.82C146.09 38.82 146.09 38.82 146.09 38.82C146.09 41.21 147.4 42.28 147.54 42.67C149.01 44.12 150.85 44.67 151.21 44.89C152.68 45.4 154.66 45.97 157.14 46.58C157.14 46.58 157.14 46.58 157.14 46.58C161.55 47.66 163.56 48.5 164.27 48.71C166.99 49.77 168.42 51.59 168.88 51.9C170.14 53.33 170.77 55.27 170.77 57.7C170.77 57.7 170.77 57.7 170.77 57.7C170.77 60.73 169.3 62.65 169.14 63.21C167.51 65.69 164.62 66.75 164.13 67.14C161.87 68.11 159.11 68.6 155.82 68.6C155.82 68.6 155.82 68.6 155.82 68.6C150.69 67.74 147.83 67.27 147.27 67.17C144.54 66.22 142.42 64.96 140.93 63.41ZM183.2 38.24L183.2 68.26L179.13 68.26L179.13 38.24L183.2 38.24ZM178.22 28.77C178.22 28.77 178.22 28.77 178.22 28.77C178.22 27.63 178.98 26.98 179.07 26.78C179.64 26.2 180.35 25.92 181.19 25.92C181.19 25.92 181.19 25.92 181.19 25.92C182.45 25.92 183.1 26.66 183.31 26.75C183.89 27.3 184.16 27.96 184.16 28.71C184.16 28.71 184.16 28.71 184.16 28.71C184.16 29.97 183.4 30.62 183.31 30.83C182.74 31.4 182.03 31.68 181.19 31.68C181.19 31.68 181.19 31.68 181.19 31.68C179.92 31.17 179.21 30.89 179.07 30.83C178.5 30.26 178.22 29.58 178.22 28.77ZM222.02 68.26C219.68 68.26 218.38 68.26 218.12 68.26C218.12 64.69 218.12 62.72 218.12 62.32C216.29 65.34 213.77 66.48 213.28 66.94C211.28 68.01 209.02 68.54 206.5 68.54C206.5 68.54 206.5 68.54 206.5 68.54C202.26 68.54 199.6 66.79 198.83 66.6C195.39 64.66 193.98 61.72 193.45 61.18C192.14 58.86 191.5 56.21 191.5 53.25C191.5 53.25 191.5 53.25 191.5 53.25C191.5 48.8 193.25 46.11 193.45 45.32C195.39 41.84 198.29 40.47 198.83 39.93C201.12 38.66 203.68 38.01 206.5 38.01C206.5 38.01 206.5 38.01 206.5 38.01C210.16 38.01 212.45 39.38 213.11 39.53C215.09 40.53 216.69 42.01 217.95 43.95C217.95 43.95 217.95 43.95 217.95 43.95L217.95 38.24L222.02 38.24L222.02 68.26ZM216.55 59.36C217.53 57.57 218.01 55.53 218.01 53.25C218.01 53.25 218.01 53.25 218.01 53.25C218.01 49.83 216.69 47.76 216.55 47.14C215.09 44.46 212.94 43.42 212.55 43.01C210.84 42.04 208.94 41.55 206.85 41.55C206.85 41.55 206.85 41.55 206.85 41.55C203.64 41.55 201.67 42.86 201.09 43.01C198.54 44.46 197.48 46.73 197.08 47.14C196.11 48.93 195.62 50.97 195.62 53.25C195.62 53.25 195.62 53.25 195.62 53.25C195.62 56.67 196.93 58.74 197.08 59.36C198.54 62.04 200.69 63.07 201.09 63.49C202.79 64.46 204.71 64.94 206.85 64.94C206.85 64.94 206.85 64.94 206.85 64.94C210.27 64.07 212.16 63.59 212.55 63.49C215.09 62.04 216.15 59.77 216.55 59.36ZM261.94 45.32C263.23 47.64 263.88 50.29 263.88 53.25C263.88 53.25 263.88 53.25 263.88 53.25C263.88 57.7 262.13 60.38 261.94 61.18C259.98 64.66 257.09 66.06 256.55 66.6C254.26 67.89 251.71 68.54 248.88 68.54C248.88 68.54 248.88 68.54 248.88 68.54C245.1 68.54 242.77 67.1 242.09 66.94C240.09 65.88 238.48 64.34 237.25 62.32C237.25 62.32 237.25 62.32 237.25 62.32L237.25 68.26L233.36 68.26L233.36 25.92C235.8 25.92 237.15 25.92 237.42 25.92C237.42 36.74 237.42 42.75 237.42 43.95C239.31 41.04 241.78 39.97 242.26 39.53C244.22 38.52 246.44 38.01 248.88 38.01C248.88 38.01 248.88 38.01 248.88 38.01C253.48 39.16 256.03 39.8 256.55 39.93C259.98 41.84 261.39 44.78 261.94 45.32ZM258.35 59.36C259.33 57.57 259.81 55.53 259.81 53.25C259.81 53.25 259.81 53.25 259.81 53.25C259.81 49.83 258.5 47.76 258.35 47.14C256.9 44.46 254.72 43.42 254.32 43.01C252.6 42.04 250.69 41.55 248.59 41.55C248.59 41.55 248.59 41.55 248.59 41.55C245.38 41.55 243.41 42.86 242.84 43.01C240.29 44.46 239.22 46.73 238.82 47.14C237.85 48.93 237.37 50.97 237.37 53.25C237.37 53.25 237.37 53.25 237.37 53.25C237.37 56.67 238.68 58.74 238.82 59.36C240.29 62.04 242.43 63.07 242.84 63.49C244.53 64.46 246.46 64.94 248.59 64.94C248.59 64.94 248.59 64.94 248.59 64.94C252.02 64.07 253.94 63.59 254.32 63.49C256.9 62.04 257.95 59.77 258.35 59.36ZM299.67 68.26C297.33 68.26 296.04 68.26 295.78 68.26C295.78 64.69 295.78 62.72 295.78 62.32C293.94 65.34 291.42 66.48 290.94 66.94C288.93 68.01 286.67 68.54 284.15 68.54C284.15 68.54 284.15 68.54 284.15 68.54C279.91 68.54 277.24 66.79 276.48 66.6C273.04 64.66 271.63 61.72 271.09 61.18C269.8 58.86 269.15 56.21 269.15 53.25C269.15 53.25 269.15 53.25 269.15 53.25C269.15 48.8 270.9 46.11 271.09 45.32C273.04 41.84 275.94 40.47 276.48 39.93C278.77 38.66 281.32 38.01 284.15 38.01C284.15 38.01 284.15 38.01 284.15 38.01C287.82 38.01 290.11 39.38 290.77 39.53C292.73 40.53 294.34 42.01 295.61 43.95C295.61 43.95 295.61 43.95 295.61 43.95L295.61 38.24L299.67 38.24L299.67 68.26ZM294.2 59.36C295.17 57.57 295.66 55.53 295.66 53.25C295.66 53.25 295.66 53.25 295.66 53.25C295.66 49.83 294.35 47.76 294.2 47.14C292.74 44.46 290.6 43.42 290.19 43.01C288.5 42.04 286.59 41.55 284.49 41.55C284.49 41.55 284.49 41.55 284.49 41.55C281.28 41.55 279.31 42.86 278.74 43.01C276.19 44.46 275.14 46.73 274.73 47.14C273.76 48.93 273.27 50.97 273.27 53.25C273.27 53.25 273.27 53.25 273.27 53.25C273.27 56.67 274.59 58.74 274.73 59.36C276.19 62.04 278.33 63.07 278.74 63.49C280.44 64.46 282.36 64.94 284.49 64.94C284.49 64.94 284.49 64.94 284.49 64.94C287.91 64.07 289.81 63.59 290.19 63.49C292.74 62.04 293.79 59.77 294.2 59.36ZM306.82 64.83C306.82 64.83 306.82 64.83 306.82 64.83C307.92 62.91 308.54 61.85 308.66 61.64C310.55 63.12 312.93 63.82 313.41 64.06C315.32 64.69 317.3 65 319.37 65C319.37 65 319.37 65 319.37 65C323.49 65 324.86 63.85 325.46 63.72C326.78 62.86 327.45 61.66 327.45 60.09C327.45 60.09 327.45 60.09 327.45 60.09C327.45 58.44 326.46 57.76 326.35 57.5C325.26 56.56 323.88 56.21 323.6 56.07C322.5 55.75 321.03 55.44 319.2 55.13C319.2 55.13 319.2 55.13 319.2 55.13C315.53 54.44 313.89 53.88 313.3 53.73C311.07 53.03 309.87 51.55 309.49 51.31C308.44 50.17 307.91 48.59 307.91 46.58C307.91 46.58 307.91 46.58 307.91 46.58C307.91 42.8 310.75 41.03 311.07 40.41C313.16 38.82 316.08 38.01 319.83 38.01C319.83 38.01 319.83 38.01 319.83 38.01C322.74 38.01 325.08 38.71 325.66 38.79C327.62 39.3 329.22 39.98 330.47 40.81C330.47 40.81 330.47 40.81 330.47 40.81C329.41 42.77 328.82 43.85 328.7 44.06C326.22 42.35 323.26 41.49 319.83 41.49C319.83 41.49 319.83 41.49 319.83 41.49C315.93 41.49 314.54 42.73 313.96 42.86C312.64 43.78 311.99 44.98 311.99 46.46C311.99 46.46 311.99 46.46 311.99 46.46C311.99 48.17 312.98 48.93 313.1 49.2C314.22 50.23 315.6 50.56 315.87 50.71C316.99 51.03 318.51 51.37 320.45 51.71C320.45 51.71 320.45 51.71 320.45 51.71C324.06 52.39 325.66 52.94 326.24 53.08C328.41 53.76 329.59 55.18 329.96 55.42C330.99 56.52 331.51 58.04 331.51 59.98C331.51 59.98 331.51 59.98 331.51 59.98C331.51 63.92 328.55 65.6 328.21 66.22C326.02 67.77 322.97 68.54 319.08 68.54C319.08 68.54 319.08 68.54 319.08 68.54C314.87 67.9 312.53 67.56 312.06 67.48C309.83 66.78 308.09 65.9 306.82 64.83ZM361.12 61C361.12 61 361.12 61 361.12 61C362.49 62.58 363.25 63.46 363.4 63.63C361.4 66.03 358.92 66.91 358.42 67.29C356.44 68.12 354.24 68.54 351.83 68.54C351.83 68.54 351.83 68.54 351.83 68.54C347.2 68.54 344.42 66.77 343.59 66.57C339.98 64.61 338.54 61.67 337.98 61.12C336.64 58.8 335.97 56.18 335.97 53.25C335.97 53.25 335.97 53.25 335.97 53.25C335.97 48.86 337.7 46.17 337.9 45.37C339.81 41.89 342.66 40.5 343.19 39.96C345.44 38.67 348 38.01 350.87 38.01C350.87 38.01 350.87 38.01 350.87 38.01C354.87 38.01 357.38 39.66 358.11 39.84C361.35 41.66 362.74 44.41 363.26 44.92C364.53 47.09 365.21 49.56 365.29 52.34C365.29 52.34 365.29 52.34 365.29 52.34C350.45 55.21 342.21 56.81 340.56 57.12C341.7 60.78 344.29 62.29 344.71 62.86C346.71 64.25 349.1 64.94 351.89 64.94C351.89 64.94 351.89 64.94 351.89 64.94C355 64.35 356.73 64.01 357.07 63.94C358.66 63.28 360 62.3 361.12 61ZM341.33 47C340.4 48.73 339.93 50.72 339.93 52.97C339.93 52.97 339.93 52.97 339.93 52.97C339.93 53.53 339.95 53.95 339.98 54.22C339.98 54.22 339.98 54.22 339.98 54.22C352.73 51.75 359.81 50.38 361.23 50.11C360.54 46.35 358.08 44.54 357.73 43.93C355.87 42.31 353.58 41.49 350.87 41.49C350.87 41.49 350.87 41.49 350.87 41.49C347.47 42.37 345.6 42.85 345.22 42.95C342.73 44.4 341.72 46.6 341.33 47ZM373.63 58.7C371.81 55.6 370.9 52.12 370.9 48.28C370.9 48.28 370.9 48.28 370.9 48.28C370.9 42.53 373.36 38.92 373.63 37.87C376.35 33.23 380.4 31.33 381.15 30.6C384.36 28.85 387.95 27.98 391.92 27.98C391.92 27.98 391.92 27.98 391.92 27.98C396.38 27.98 399.34 29.31 400.17 29.46C402.69 30.45 404.82 31.89 406.58 33.79C406.58 33.79 406.58 33.79 406.58 33.79C404.97 35.4 404.07 36.3 403.88 36.47C400.76 33.32 396.81 31.74 392.04 31.74C392.04 31.74 392.04 31.74 392.04 31.74C387.28 31.74 384.25 33.69 383.39 33.91C379.5 36.08 377.9 39.25 377.29 39.84C375.82 42.35 375.08 45.17 375.08 48.28C375.08 48.28 375.08 48.28 375.08 48.28C375.08 52.97 377.07 55.89 377.29 56.73C379.5 60.5 382.78 62.07 383.39 62.66C385.98 64.11 388.87 64.83 392.04 64.83C392.04 64.83 392.04 64.83 392.04 64.83C396.84 64.83 400.8 63.24 403.88 60.04C403.88 60.04 403.88 60.04 403.88 60.04C405.5 61.65 406.4 62.54 406.58 62.72C403.94 65.57 400.78 66.65 400.14 67.09C397.6 68.09 394.84 68.6 391.86 68.6C391.86 68.6 391.86 68.6 391.86 68.6C385.42 67.02 381.84 66.15 381.13 65.98C376.35 63.35 374.37 59.42 373.63 58.7ZM430.74 68.26L426.57 68.26L408.81 28.32L413.4 28.32L428.74 63.01L444.2 28.32L448.49 28.32L430.74 68.26Z" id="c37j82CLcB"></path>
        <path d="M140.93 63.41C140.93 63.41 140.93 63.41 140.93 63.41C141.93 61.45 142.49 60.37 142.59 60.15C144.77 62.32 147.8 63.31 148.38 63.66C150.78 64.56 153.26 65 155.82 65C155.82 65 155.82 65 155.82 65C161.2 65 163.09 63.23 163.9 63.03C165.69 61.72 166.59 60.02 166.59 57.93C166.59 57.93 166.59 57.93 166.59 57.93C166.59 55.53 165.27 54.49 165.13 54.11C163.67 52.68 161.9 52.12 161.55 51.9C160.14 51.4 158.17 50.83 155.65 50.23C155.65 50.23 155.65 50.23 155.65 50.23C151.13 49.09 149.15 48.25 148.44 48.02C145.74 46.97 144.29 45.13 143.83 44.81C142.54 43.36 141.91 41.41 141.91 38.92C141.91 38.92 141.91 38.92 141.91 38.92C141.91 35.91 143.35 33.97 143.51 33.43C145.11 30.95 147.95 29.85 148.44 29.46C150.65 28.47 153.4 27.98 156.68 27.98C156.68 27.98 156.68 27.98 156.68 27.98C160.12 27.98 162.74 28.82 163.41 28.91C165.6 29.55 167.51 30.41 169.11 31.51C169.11 31.51 169.11 31.51 169.11 31.51C168.24 33.53 167.77 34.65 167.68 34.88C165.16 33.23 162.83 32.64 162.3 32.39C160.38 31.85 158.51 31.57 156.68 31.57C156.68 31.57 156.68 31.57 156.68 31.57C151.41 31.57 149.55 33.39 148.75 33.6C146.98 34.95 146.09 36.68 146.09 38.82C146.09 38.82 146.09 38.82 146.09 38.82C146.09 41.21 147.4 42.28 147.54 42.67C149.01 44.12 150.85 44.67 151.21 44.89C152.68 45.4 154.66 45.97 157.14 46.58C157.14 46.58 157.14 46.58 157.14 46.58C161.55 47.66 163.56 48.5 164.27 48.71C166.99 49.77 168.42 51.59 168.88 51.9C170.14 53.33 170.77 55.27 170.77 57.7C170.77 57.7 170.77 57.7 170.77 57.7C170.77 60.73 169.3 62.65 169.14 63.21C167.51 65.69 164.62 66.75 164.13 67.14C161.87 68.11 159.11 68.6 155.82 68.6C155.82 68.6 155.82 68.6 155.82 68.6C150.69 67.74 147.83 67.27 147.27 67.17C144.54 66.22 142.42 64.96 140.93 63.41ZM183.2 38.24L183.2 68.26L179.13 68.26L179.13 38.24L183.2 38.24ZM178.22 28.77C178.22 28.77 178.22 28.77 178.22 28.77C178.22 27.63 178.98 26.98 179.07 26.78C179.64 26.2 180.35 25.92 181.19 25.92C181.19 25.92 181.19 25.92 181.19 25.92C182.45 25.92 183.1 26.66 183.31 26.75C183.89 27.3 184.16 27.96 184.16 28.71C184.16 28.71 184.16 28.71 184.16 28.71C184.16 29.97 183.4 30.62 183.31 30.83C182.74 31.4 182.03 31.68 181.19 31.68C181.19 31.68 181.19 31.68 181.19 31.68C179.92 31.17 179.21 30.89 179.07 30.83C178.5 30.26 178.22 29.58 178.22 28.77ZM222.02 68.26C219.68 68.26 218.38 68.26 218.12 68.26C218.12 64.69 218.12 62.72 218.12 62.32C216.29 65.34 213.77 66.48 213.28 66.94C211.28 68.01 209.02 68.54 206.5 68.54C206.5 68.54 206.5 68.54 206.5 68.54C202.26 68.54 199.6 66.79 198.83 66.6C195.39 64.66 193.98 61.72 193.45 61.18C192.14 58.86 191.5 56.21 191.5 53.25C191.5 53.25 191.5 53.25 191.5 53.25C191.5 48.8 193.25 46.11 193.45 45.32C195.39 41.84 198.29 40.47 198.83 39.93C201.12 38.66 203.68 38.01 206.5 38.01C206.5 38.01 206.5 38.01 206.5 38.01C210.16 38.01 212.45 39.38 213.11 39.53C215.09 40.53 216.69 42.01 217.95 43.95C217.95 43.95 217.95 43.95 217.95 43.95L217.95 38.24L222.02 38.24L222.02 68.26ZM216.55 59.36C217.53 57.57 218.01 55.53 218.01 53.25C218.01 53.25 218.01 53.25 218.01 53.25C218.01 49.83 216.69 47.76 216.55 47.14C215.09 44.46 212.94 43.42 212.55 43.01C210.84 42.04 208.94 41.55 206.85 41.55C206.85 41.55 206.85 41.55 206.85 41.55C203.64 41.55 201.67 42.86 201.09 43.01C198.54 44.46 197.48 46.73 197.08 47.14C196.11 48.93 195.62 50.97 195.62 53.25C195.62 53.25 195.62 53.25 195.62 53.25C195.62 56.67 196.93 58.74 197.08 59.36C198.54 62.04 200.69 63.07 201.09 63.49C202.79 64.46 204.71 64.94 206.85 64.94C206.85 64.94 206.85 64.94 206.85 64.94C210.27 64.07 212.16 63.59 212.55 63.49C215.09 62.04 216.15 59.77 216.55 59.36ZM261.94 45.32C263.23 47.64 263.88 50.29 263.88 53.25C263.88 53.25 263.88 53.25 263.88 53.25C263.88 57.7 262.13 60.38 261.94 61.18C259.98 64.66 257.09 66.06 256.55 66.6C254.26 67.89 251.71 68.54 248.88 68.54C248.88 68.54 248.88 68.54 248.88 68.54C245.1 68.54 242.77 67.1 242.09 66.94C240.09 65.88 238.48 64.34 237.25 62.32C237.25 62.32 237.25 62.32 237.25 62.32L237.25 68.26L233.36 68.26L233.36 25.92C235.8 25.92 237.15 25.92 237.42 25.92C237.42 36.74 237.42 42.75 237.42 43.95C239.31 41.04 241.78 39.97 242.26 39.53C244.22 38.52 246.44 38.01 248.88 38.01C248.88 38.01 248.88 38.01 248.88 38.01C253.48 39.16 256.03 39.8 256.55 39.93C259.98 41.84 261.39 44.78 261.94 45.32ZM258.35 59.36C259.33 57.57 259.81 55.53 259.81 53.25C259.81 53.25 259.81 53.25 259.81 53.25C259.81 49.83 258.5 47.76 258.35 47.14C256.9 44.46 254.72 43.42 254.32 43.01C252.6 42.04 250.69 41.55 248.59 41.55C248.59 41.55 248.59 41.55 248.59 41.55C245.38 41.55 243.41 42.86 242.84 43.01C240.29 44.46 239.22 46.73 238.82 47.14C237.85 48.93 237.37 50.97 237.37 53.25C237.37 53.25 237.37 53.25 237.37 53.25C237.37 56.67 238.68 58.74 238.82 59.36C240.29 62.04 242.43 63.07 242.84 63.49C244.53 64.46 246.46 64.94 248.59 64.94C248.59 64.94 248.59 64.94 248.59 64.94C252.02 64.07 253.94 63.59 254.32 63.49C256.9 62.04 257.95 59.77 258.35 59.36ZM299.67 68.26C297.33 68.26 296.04 68.26 295.78 68.26C295.78 64.69 295.78 62.72 295.78 62.32C293.94 65.34 291.42 66.48 290.94 66.94C288.93 68.01 286.67 68.54 284.15 68.54C284.15 68.54 284.15 68.54 284.15 68.54C279.91 68.54 277.24 66.79 276.48 66.6C273.04 64.66 271.63 61.72 271.09 61.18C269.8 58.86 269.15 56.21 269.15 53.25C269.15 53.25 269.15 53.25 269.15 53.25C269.15 48.8 270.9 46.11 271.09 45.32C273.04 41.84 275.94 40.47 276.48 39.93C278.77 38.66 281.32 38.01 284.15 38.01C284.15 38.01 284.15 38.01 284.15 38.01C287.82 38.01 290.11 39.38 290.77 39.53C292.73 40.53 294.34 42.01 295.61 43.95C295.61 43.95 295.61 43.95 295.61 43.95L295.61 38.24L299.67 38.24L299.67 68.26ZM294.2 59.36C295.17 57.57 295.66 55.53 295.66 53.25C295.66 53.25 295.66 53.25 295.66 53.25C295.66 49.83 294.35 47.76 294.2 47.14C292.74 44.46 290.6 43.42 290.19 43.01C288.5 42.04 286.59 41.55 284.49 41.55C284.49 41.55 284.49 41.55 284.49 41.55C281.28 41.55 279.31 42.86 278.74 43.01C276.19 44.46 275.14 46.73 274.73 47.14C273.76 48.93 273.27 50.97 273.27 53.25C273.27 53.25 273.27 53.25 273.27 53.25C273.27 56.67 274.59 58.74 274.73 59.36C276.19 62.04 278.33 63.07 278.74 63.49C280.44 64.46 282.36 64.94 284.49 64.94C284.49 64.94 284.49 64.94 284.49 64.94C287.91 64.07 289.81 63.59 290.19 63.49C292.74 62.04 293.79 59.77 294.2 59.36ZM306.82 64.83C306.82 64.83 306.82 64.83 306.82 64.83C307.92 62.91 308.54 61.85 308.66 61.64C310.55 63.12 312.93 63.82 313.41 64.06C315.32 64.69 317.3 65 319.37 65C319.37 65 319.37 65 319.37 65C323.49 65 324.86 63.85 325.46 63.72C326.78 62.86 327.45 61.66 327.45 60.09C327.45 60.09 327.45 60.09 327.45 60.09C327.45 58.44 326.46 57.76 326.35 57.5C325.26 56.56 323.88 56.21 323.6 56.07C322.5 55.75 321.03 55.44 319.2 55.13C319.2 55.13 319.2 55.13 319.2 55.13C315.53 54.44 313.89 53.88 313.3 53.73C311.07 53.03 309.87 51.55 309.49 51.31C308.44 50.17 307.91 48.59 307.91 46.58C307.91 46.58 307.91 46.58 307.91 46.58C307.91 42.8 310.75 41.03 311.07 40.41C313.16 38.82 316.08 38.01 319.83 38.01C319.83 38.01 319.83 38.01 319.83 38.01C322.74 38.01 325.08 38.71 325.66 38.79C327.62 39.3 329.22 39.98 330.47 40.81C330.47 40.81 330.47 40.81 330.47 40.81C329.41 42.77 328.82 43.85 328.7 44.06C326.22 42.35 323.26 41.49 319.83 41.49C319.83 41.49 319.83 41.49 319.83 41.49C315.93 41.49 314.54 42.73 313.96 42.86C312.64 43.78 311.99 44.98 311.99 46.46C311.99 46.46 311.99 46.46 311.99 46.46C311.99 48.17 312.98 48.93 313.1 49.2C314.22 50.23 315.6 50.56 315.87 50.71C316.99 51.03 318.51 51.37 320.45 51.71C320.45 51.71 320.45 51.71 320.45 51.71C324.06 52.39 325.66 52.94 326.24 53.08C328.41 53.76 329.59 55.18 329.96 55.42C330.99 56.52 331.51 58.04 331.51 59.98C331.51 59.98 331.51 59.98 331.51 59.98C331.51 63.92 328.55 65.6 328.21 66.22C326.02 67.77 322.97 68.54 319.08 68.54C319.08 68.54 319.08 68.54 319.08 68.54C314.87 67.9 312.53 67.56 312.06 67.48C309.83 66.78 308.09 65.9 306.82 64.83ZM361.12 61C361.12 61 361.12 61 361.12 61C362.49 62.58 363.25 63.46 363.4 63.63C361.4 66.03 358.92 66.91 358.42 67.29C356.44 68.12 354.24 68.54 351.83 68.54C351.83 68.54 351.83 68.54 351.83 68.54C347.2 68.54 344.42 66.77 343.59 66.57C339.98 64.61 338.54 61.67 337.98 61.12C336.64 58.8 335.97 56.18 335.97 53.25C335.97 53.25 335.97 53.25 335.97 53.25C335.97 48.86 337.7 46.17 337.9 45.37C339.81 41.89 342.66 40.5 343.19 39.96C345.44 38.67 348 38.01 350.87 38.01C350.87 38.01 350.87 38.01 350.87 38.01C354.87 38.01 357.38 39.66 358.11 39.84C361.35 41.66 362.74 44.41 363.26 44.92C364.53 47.09 365.21 49.56 365.29 52.34C365.29 52.34 365.29 52.34 365.29 52.34C350.45 55.21 342.21 56.81 340.56 57.12C341.7 60.78 344.29 62.29 344.71 62.86C346.71 64.25 349.1 64.94 351.89 64.94C351.89 64.94 351.89 64.94 351.89 64.94C355 64.35 356.73 64.01 357.07 63.94C358.66 63.28 360 62.3 361.12 61ZM341.33 47C340.4 48.73 339.93 50.72 339.93 52.97C339.93 52.97 339.93 52.97 339.93 52.97C339.93 53.53 339.95 53.95 339.98 54.22C339.98 54.22 339.98 54.22 339.98 54.22C352.73 51.75 359.81 50.38 361.23 50.11C360.54 46.35 358.08 44.54 357.73 43.93C355.87 42.31 353.58 41.49 350.87 41.49C350.87 41.49 350.87 41.49 350.87 41.49C347.47 42.37 345.6 42.85 345.22 42.95C342.73 44.4 341.72 46.6 341.33 47ZM373.63 58.7C371.81 55.6 370.9 52.12 370.9 48.28C370.9 48.28 370.9 48.28 370.9 48.28C370.9 42.53 373.36 38.92 373.63 37.87C376.35 33.23 380.4 31.33 381.15 30.6C384.36 28.85 387.95 27.98 391.92 27.98C391.92 27.98 391.92 27.98 391.92 27.98C396.38 27.98 399.34 29.31 400.17 29.46C402.69 30.45 404.82 31.89 406.58 33.79C406.58 33.79 406.58 33.79 406.58 33.79C404.97 35.4 404.07 36.3 403.88 36.47C400.76 33.32 396.81 31.74 392.04 31.74C392.04 31.74 392.04 31.74 392.04 31.74C387.28 31.74 384.25 33.69 383.39 33.91C379.5 36.08 377.9 39.25 377.29 39.84C375.82 42.35 375.08 45.17 375.08 48.28C375.08 48.28 375.08 48.28 375.08 48.28C375.08 52.97 377.07 55.89 377.29 56.73C379.5 60.5 382.78 62.07 383.39 62.66C385.98 64.11 388.87 64.83 392.04 64.83C392.04 64.83 392.04 64.83 392.04 64.83C396.84 64.83 400.8 63.24 403.88 60.04C403.88 60.04 403.88 60.04 403.88 60.04C405.5 61.65 406.4 62.54 406.58 62.72C403.94 65.57 400.78 66.65 400.14 67.09C397.6 68.09 394.84 68.6 391.86 68.6C391.86 68.6 391.86 68.6 391.86 68.6C385.42 67.02 381.84 66.15 381.13 65.98C376.35 63.35 374.37 59.42 373.63 58.7ZM430.74 68.26L426.57 68.26L408.81 28.32L413.4 28.32L428.74 63.01L444.2 28.32L448.49 28.32L430.74 68.26Z" id="c57Nto6T0"></path>
    </defs>
    <g>
        <g>
            <use xlink:href="#g1TnHU5p2d" opacity="1" fill="#4db2ff" fill-opacity="1"></use>
            <g>
                <use xlink:href="#g1TnHU5p2d" opacity="1" fill-opacity="0" stroke="#000000" stroke-width="1" stroke-opacity="0"></use>
            </g>
        </g>
        <g>
            <use xlink:href="#c5Zgms2tXP" opacity="1" fill="#000000" fill-opacity="0"></use>
            <g>
                <use xlink:href="#c5Zgms2tXP" opacity="1" fill-opacity="0" stroke="#000000" stroke-width="1" stroke-opacity="0"></use>
            </g>
        </g>
        <g>
            <use xlink:href="#capkNexTb" opacity="1" fill="#0ef3d3" fill-opacity="1"></use>
            <g>
                <use xlink:href="#capkNexTb" opacity="1" fill-opacity="0" stroke="#000000" stroke-width="1" stroke-opacity="0"></use>
            </g>
        </g>
        <g>
            <use xlink:href="#c3PfkBehM" opacity="1" fill="#000000" fill-opacity="0"></use>
            <g>
                <use xlink:href="#c3PfkBehM" opacity="1" fill-opacity="0" stroke="#000000" stroke-width="1" stroke-opacity="0"></use>
            </g>
        </g>
        <g>
            <use xlink:href="#b45sl4vvGy" opacity="1" fill="#000059" fill-opacity="1"></use>
            <g>
                <use xlink:href="#b45sl4vvGy" opacity="1" fill-opacity="0" stroke="#000000" stroke-width="1" stroke-opacity="0"></use>
            </g>
        </g>
        <g>
            <use xlink:href="#beSbGNuWU" opacity="1" fill="#000000" fill-opacity="0"></use>
            <g>
                <use xlink:href="#beSbGNuWU" opacity="1" fill-opacity="0" stroke="#000000" stroke-width="1" stroke-opacity="0"></use>
            </g>
        </g>
        <g>
            <use xlink:href="#a2igGwBH9Y" opacity="1" fill="#000059" fill-opacity="1"></use>
            <g>
                <use xlink:href="#a2igGwBH9Y" opacity="1" fill-opacity="0" stroke="#000000" stroke-width="1" stroke-opacity="0"></use>
            </g>
        </g>
        <g>
            <use xlink:href="#aqd3Asndi" opacity="1" fill="#000000" fill-opacity="0"></use>
            <g>
                <use xlink:href="#aqd3Asndi" opacity="1" fill-opacity="0" stroke="#000000" stroke-width="1" stroke-opacity="0"></use>
            </g>
        </g>
        <g>
            <use xlink:href="#c2gyZ8VUG2" opacity="1" fill="#4db2ff" fill-opacity="1"></use>
            <g>
                <use xlink:href="#c2gyZ8VUG2" opacity="1" fill-opacity="0" stroke="#000000" stroke-width="1" stroke-opacity="0"></use>
            </g>
        </g>
        <g>
            <use xlink:href="#c2TO3fgGha" opacity="1" fill="#000000" fill-opacity="0"></use>
            <g>
                <use xlink:href="#c2TO3fgGha" opacity="1" fill-opacity="0" stroke="#000000" stroke-width="1" stroke-opacity="0"></use>
            </g>
        </g>
        <g>
            <use xlink:href="#bhUaA8AEZ" opacity="1" fill="#0ef3d3" fill-opacity="1"></use>
            <g>
                <use xlink:href="#bhUaA8AEZ" opacity="1" fill-opacity="0" stroke="#000000" stroke-width="1" stroke-opacity="0"></use>
            </g>
        </g>
        <g>
            <use xlink:href="#b1vy4IYOa9" opacity="1" fill="#000000" fill-opacity="0"></use>
            <g>
                <use xlink:href="#b1vy4IYOa9" opacity="1" fill-opacity="0" stroke="#000000" stroke-width="1" stroke-opacity="0"></use>
            </g>
        </g>
        <g>
            <use xlink:href="#b3YWEmPnP0" opacity="1" fill="#000059" fill-opacity="1"></use>
            <g>
                <use xlink:href="#b3YWEmPnP0" opacity="1" fill-opacity="0" stroke="#000000" stroke-width="1" stroke-opacity="0"></use>
            </g>
        </g>
        <g>
            <use xlink:href="#f4q6veXvhK" opacity="1" fill="#000000" fill-opacity="0"></use>
            <g>
                <use xlink:href="#f4q6veXvhK" opacity="1" fill-opacity="0" stroke="#000000" stroke-width="1" stroke-opacity="0"></use>
            </g>
        </g>
        <g>
            <use xlink:href="#anKQou44Z" opacity="1" fill="#ffffff" fill-opacity="1"></use>
            <g>
                <use xlink:href="#anKQou44Z" opacity="1" fill-opacity="0" stroke="#000000" stroke-width="1" stroke-opacity="0"></use>
            </g>
        </g>
        <g>
            <use xlink:href="#c1L07DWTIi" opacity="1" fill="#ffffff" fill-opacity="1"></use>
            <g>
                <use xlink:href="#c1L07DWTIi" opacity="1" fill-opacity="0" stroke="#000000" stroke-width="0" stroke-opacity="0"></use>
            </g>
        </g>
        <g>
            <use xlink:href="#c37j82CLcB" opacity="1" fill="#ffffff" fill-opacity="1"></use>
            <g>
                <use xlink:href="#c37j82CLcB" opacity="1" fill-opacity="0" stroke="#000000" stroke-width="1" stroke-opacity="0"></use>
            </g>
        </g>
        <g>
            <use xlink:href="#c57Nto6T0" opacity="1" fill="#ffffff" fill-opacity="1"></use>
            <g>
                <use xlink:href="#c57Nto6T0" opacity="1" fill-opacity="0" stroke="#000000" stroke-width="1" stroke-opacity="0"></use>
            </g>
        </g>
    </g>
</svg>
